<?xml version="1.0" encoding="UTF-8" standalone="no"?>
<!-- Created with Inkscape (http://www.inkscape.org/) -->

<svg
   width="133.56906mm"
   height="21.80146mm"
   viewBox="0 0 133.56906 21.80146"
   version="1.1"
   id="svg1"
   xml:space="preserve"
   xmlns="http://www.w3.org/2000/svg"
   xmlns:svg="http://www.w3.org/2000/svg"><defs
     id="defs1" /><g
     id="layer2"
     transform="translate(-55.494328,-100.09301)"><g
       id="g1"
       transform="matrix(1,0,0,1.0200516,0,-2.007027)"><path
         style="fill:#006125;fill-opacity:1;stroke-width:0.0513465"
         d="m 55.494328,121.50099 0.08683,-11.61638 4.601877,-1.91382 -2.64825,3.51607 0.08683,10.05864 z"
         id="path1" /><path
         style="fill:#006125;fill-opacity:1;stroke-width:0.0513465"
         d="m 61.094726,121.5455 v -19.44966 l 2.518009,-1.86931 0.130241,21.40798 z"
         id="path2" /><path
         style="fill:#006125;fill-opacity:1;stroke-width:0.0513465"
         d="m 57.317713,111.48686 4.775534,-1.73577 1.476073,-9.56906 -3.386287,1.60225 0.04341,6.09751 z"
         id="path3" /><path
         style="fill:#006125;fill-opacity:1;stroke-width:0.0513465"
         d="m 68.909235,121.50099 v -16.06712 l -5.513571,-3.24902 0.08683,-2.09184 7.206714,4.40621 -0.04341,17.04628 z"
         id="path4" /><path
         style="fill:#006125;fill-opacity:1;stroke-width:0.0513465"
         d="m 70.472136,106.76909 4.254567,2.58144 -0.04341,5.96396 1.606317,1.02366 0.04341,5.25185 -1.910213,-0.0445 0.04341,-2.80394 -4.254567,-2.98199 v -3.56058 l 2.86532,2.09184 0.04341,-3.7386 -3.082392,-1.8693 z"
         id="path5" /></g><path
       d="m 84.908505,114.76312 3.460254,7.13135 H 83.71788 l -4.960937,-10.23193 h 3.720703 q 0.620117,0 0.620117,-0.62012 v -2.17041 q 0,-0.62012 -0.620117,-0.62012 h -4.340821 v 13.64258 h -4.960937 v -17.36328 h 12.402344 q 2.480468,0 2.480468,2.48047 v 5.27099 q 0,2.48047 -2.480468,2.48047 z m 9.351367,-6.51123 v 3.41065 h 8.061528 v 3.10058 h -8.061528 v 3.41065 h 9.921878 l -1.24024,3.7207 H 89.298935 v -17.36328 h 14.882815 l -1.24024,3.7207 z m 19.223638,0 h -3.10059 v 13.64258 h -4.96094 v -17.36328 h 18.60352 q 2.48047,0 2.48047,2.48047 v 14.88281 h -4.96094 v -13.02246 q 0,-0.62012 -0.62012,-0.62012 h -2.48047 v 13.64258 h -4.96093 z m 19.22363,2.79053 q 0,0.62012 0.62012,0.62012 h 6.82128 q 2.48047,0 2.48047,2.48047 v 5.25859 q 0,2.49287 -2.48047,2.49287 H 127.7462 l 1.24023,-3.7207 h 8.06153 q 0.62012,0 0.62012,-0.62012 v -2.18281 q 0,-0.60772 -0.62012,-0.60772 h -6.82129 q -2.48047,0 -2.48047,-2.48047 v -5.27099 q 0,-2.48047 2.48047,-2.48047 h 12.40234 l -1.24023,3.7207 h -8.06152 q -0.62012,0 -0.62012,0.60772 z m 16.12304,-2.79053 v 3.41065 h 8.06153 v 3.10058 h -8.06153 v 7.13135 h -4.96093 v -17.36328 h 14.88281 l -1.24023,3.7207 z m 15.42852,3.22461 -3.72071,10.41797 H 155.267 l 6.20117,-17.36328 h 5.58105 l 6.20118,17.36328 h -11.47217 l 1.24023,-3.7207 h 3.63389 z m 14.88281,-6.94531 v 13.64258 h 9.92187 l -1.24023,3.7207 h -13.64258 v -17.36328 z"
       id="text2"
       style="font-size:25.4px;font-family:Cybertron;-inkscape-font-specification:Cybertron;display:inline;fill:#006125;stroke-width:0.264583"
       aria-label="REMSFAL" /></g></svg>
