<?xml version="1.0" encoding="UTF-8" standalone="no"?>
<!-- Created with Inkscape (http://www.inkscape.org/) -->

<svg
   width="20.838692mm"
   height="21.973442mm"
   viewBox="0 0 20.838692 21.973442"
   version="1.1"
   id="svg1"
   xml:space="preserve"
   sodipodi:docname="remsfal-icon.svg"
   inkscape:version="1.4.2 (ebf0e940, 2025-05-08)"
   inkscape:export-filename="remsfal-icon.png"
   inkscape:export-xdpi="96"
   inkscape:export-ydpi="96"
   xmlns:inkscape="http://www.inkscape.org/namespaces/inkscape"
   xmlns:sodipodi="http://sodipodi.sourceforge.net/DTD/sodipodi-0.dtd"
   xmlns="http://www.w3.org/2000/svg"
   xmlns:svg="http://www.w3.org/2000/svg"><sodipodi:namedview
     id="namedview1"
     pagecolor="#ffffff"
     bordercolor="#000000"
     borderopacity="0.25"
     inkscape:showpageshadow="2"
     inkscape:pageopacity="0.0"
     inkscape:pagecheckerboard="0"
     inkscape:deskcolor="#d1d1d1"
     inkscape:document-units="mm"
     inkscape:zoom="1.6480863"
     inkscape:cx="252.11059"
     inkscape:cy="41.259977"
     inkscape:window-width="1920"
     inkscape:window-height="959"
     inkscape:window-x="2"
     inkscape:window-y="25"
     inkscape:window-maximized="0"
     inkscape:current-layer="svg1" /><defs
     id="defs1" /><g
     id="layer2"
     transform="translate(-55.494328,-100.09301)"><g
       id="g1"
       transform="matrix(1,0,0,1.0200516,0,-2.007027)"><path
         style="fill:#006125;fill-opacity:1;stroke-width:0.0513465"
         d="m 55.494328,121.50099 0.08683,-11.61638 4.601877,-1.91382 -2.64825,3.51607 0.08683,10.05864 z"
         id="path1" /><path
         style="fill:#006125;fill-opacity:1;stroke-width:0.0513465"
         d="m 61.094726,121.5455 v -19.44966 l 2.518009,-1.86931 0.130241,21.40798 z"
         id="path2" /><path
         style="fill:#006125;fill-opacity:1;stroke-width:0.0513465"
         d="m 57.317713,111.48686 4.775534,-1.73577 1.476073,-9.56906 -3.386287,1.60225 0.04341,6.09751 z"
         id="path3" /><path
         style="fill:#006125;fill-opacity:1;stroke-width:0.0513465"
         d="m 68.909235,121.50099 v -16.06712 l -5.513571,-3.24902 0.08683,-2.09184 7.206714,4.40621 -0.04341,17.04628 z"
         id="path4" /><path
         style="fill:#006125;fill-opacity:1;stroke-width:0.0513465"
         d="m 70.472136,106.76909 4.254567,2.58144 -0.04341,5.96396 1.606317,1.02366 0.04341,5.25185 -1.910213,-0.0445 0.04341,-2.80394 -4.254567,-2.98199 v -3.56058 l 2.86532,2.09184 0.04341,-3.7386 -3.082392,-1.8693 z"
         id="path5" /></g></g></svg>
